<?xml version="1.0" standalone="no"?>
<!DOCTYPE svg PUBLIC "-//W3C//DTD SVG 20010904//EN"
 "http://www.w3.org/TR/2001/REC-SVG-20010904/DTD/svg10.dtd">
<svg version="1.0" xmlns="http://www.w3.org/2000/svg"
 width="456.000000pt" height="456.000000pt" viewBox="0 0 456.000000 456.000000"
 preserveAspectRatio="xMidYMid meet">
<metadata>
Created by potrace 1.14, written by Peter Selinger 2001-2017
</metadata>
<g transform="translate(0.000000,456.000000) scale(0.100000,-0.100000)"
fill="#000000" stroke="none">
<path d="M2075 4170 c-603 -6 -622 -6 -690 -28 -117 -36 -184 -65 -260 -111
-77 -47 -235 -181 -235 -199 0 -4 -13 -19 -29 -34 -38 -37 -117 -172 -151
-261 -66 -168 -62 -84 -63 -1675 0 -1233 2 -1445 14 -1453 8 -6 61 -9 119 -7
90 3 113 7 160 30 66 33 99 61 126 108 51 89 49 17 54 1365 l5 1260 29 80 c16
44 32 82 35 85 4 3 13 20 20 38 8 17 17 32 22 32 5 0 9 5 9 12 0 16 97 107
160 150 30 21 91 49 135 63 l81 26 709 -3 c707 -3 710 -3 764 -25 149 -61 292
-201 345 -338 45 -119 46 -131 47 -998 0 -585 -3 -838 -12 -877 -14 -66 -67
-200 -80 -200 -5 0 -9 -5 -9 -10 0 -14 -12 -29 -86 -104 -70 -72 -192 -138
-288 -155 -34 -6 -196 -11 -380 -11 -287 0 -330 2 -405 20 -75 18 -166 59
-207 92 -56 47 -104 96 -104 106 0 7 -4 12 -8 12 -5 0 -15 12 -23 28 -8 15
-19 33 -26 39 -19 21 -52 118 -63 190 -13 77 -12 821 1 923 20 165 113 308
260 398 102 62 254 86 374 58 72 -17 175 -63 175 -78 0 -4 6 -8 13 -8 29 0
130 -118 168 -197 81 -171 75 -382 -17 -524 -70 -107 -191 -199 -304 -229 -22
-6 -46 -17 -54 -25 -8 -8 -17 -15 -20 -15 -8 0 -50 -45 -65 -71 -75 -126 -130
-336 -102 -388 11 -20 19 -21 179 -21 245 0 361 32 535 147 76 50 164 135 210
203 17 25 33 47 36 50 19 16 86 174 102 241 19 73 20 106 17 407 l-3 327 -33
95 c-31 88 -105 231 -124 238 -4 2 -8 8 -8 13 0 5 -8 17 -17 28 -10 10 -39 40
-64 67 -25 27 -68 66 -95 86 -27 21 -54 42 -60 47 -28 23 -207 102 -279 123
-73 21 -98 23 -305 22 -214 -1 -230 -2 -315 -28 -49 -15 -109 -36 -132 -46
-24 -11 -47 -20 -52 -20 -5 0 -11 -3 -13 -7 -4 -11 -85 -63 -97 -63 -5 0 -11
-7 -15 -15 -3 -8 -10 -15 -16 -15 -15 0 -161 -149 -201 -206 -19 -27 -36 -51
-39 -54 -27 -27 -85 -188 -104 -290 -23 -119 -24 -1304 -1 -1432 15 -87 76
-249 105 -281 9 -9 23 -30 31 -45 29 -57 177 -205 256 -258 66 -44 172 -96
238 -118 126 -41 202 -46 677 -46 475 0 515 3 653 46 49 15 155 63 165 75 3 3
19 11 35 17 17 7 44 24 59 37 16 14 32 25 36 25 12 0 156 151 192 200 67 93
130 219 152 305 33 131 36 229 36 1168 0 792 -2 956 -15 1046 -9 58 -18 113
-22 121 -3 8 -7 21 -9 29 -7 34 -51 132 -86 190 -21 34 -38 67 -38 72 0 5 -4
9 -10 9 -5 0 -10 4 -10 9 0 12 -44 62 -114 130 -90 87 -106 101 -115 101 -4 0
-16 9 -26 20 -10 11 -21 20 -25 20 -4 0 -29 12 -56 27 -153 87 -353 126 -609
121 -71 -2 -409 -5 -750 -8z"/>
</g>
</svg>
